# xmcd CD database file
#
# Track frame offsets:
#	150
#	15169
#	40852
#	64426
#	83526
#	105754
#	125292
#	156815
#	175467
#
# Disc length: 2752 seconds
#
# Revision: 2
# Processed by: cddbd v1.4PL0 Copyright (c) Steve Scherf et al.
# Submitted via: CDex 1.50Beta5
#
DISCID=5f0abe09
DTITLE=Nakajima Miyuki - Ringetsu
DYEAR=1900
DGENRE=
TTITLE0=Ashita tenki ni nare
TTITLE1=Anata ga umi wo mite iru uchi ni
TTITLE2=Awase kagami
TTITLE3=Hitori jouzu
TTITLE4=Yuki
TTITLE5=Basu doori
TTITLE6=Yuujou
TTITLE7=Seijin sedai
TTITLE8=Yakyoku
EXTD=
EXTT0=
EXTT1=
EXTT2=
EXTT3=
EXTT4=
EXTT5=
EXTT6=
EXTT7=
EXTT8=
PLAYORDER=
